<?xml version="1.0" standalone="no"?>
<!DOCTYPE svg PUBLIC "-//W3C//DTD SVG 20010904//EN"
 "http://www.w3.org/TR/2001/REC-SVG-20010904/DTD/svg10.dtd">
<svg version="1.0" xmlns="http://www.w3.org/2000/svg"
 width="200.000000pt" height="200.000000pt" viewBox="0 0 200.000000 200.000000"
 preserveAspectRatio="xMidYMid meet">
<metadata>
Created by potrace 1.14, written by Peter Selinger 2001-2017
</metadata>
<g transform="translate(0.000000,200.000000) scale(0.100000,-0.100000)"
fill="#000000" stroke="none">
<path d="M789 1867 c-15 -8 -43 -49 -77 -116 l-54 -103 -120 5 c-115 6 -121 5
-142 -16 -22 -22 -22 -29 -18 -144 l4 -122 -100 -50 c-120 -60 -137 -79 -117
-128 8 -19 24 -48 36 -64 21 -30 21 -31 4 -69 -12 -26 -16 -53 -12 -80 5 -38
3 -41 -33 -61 -113 -64 -67 -229 62 -229 l38 0 -6 -44 c-4 -25 -2 -52 5 -65
11 -19 9 -21 -14 -21 -88 0 -149 -106 -103 -180 21 -35 74 -71 103 -69 50 3
55 0 44 -25 -23 -50 17 -134 73 -155 10 -3 334 -6 721 -6 653 0 705 2 730 18
39 25 58 60 59 107 0 50 -24 89 -70 109 -29 13 -31 17 -25 56 7 55 -17 107
-63 131 -27 15 -34 24 -34 49 0 29 6 35 109 89 145 77 145 78 47 229 l-57 86
67 105 c87 138 87 138 -74 222 l-93 49 6 116 c5 107 4 118 -15 142 l-21 26
-122 -5 -122 -6 -50 95 c-27 53 -55 103 -62 113 -22 30 -65 18 -166 -46 l-97
-62 -92 59 c-112 72 -119 74 -149 60z m124 -117 c51 -33 105 -60 118 -60 14 0
63 24 110 53 46 29 89 56 96 60 8 5 29 -27 64 -93 29 -55 59 -106 66 -112 12
-10 115 -12 228 -5 27 2 30 -1 28 -28 -6 -119 -3 -205 6 -223 6 -11 56 -43
111 -71 55 -29 100 -54 100 -56 0 -2 -27 -46 -60 -97 -34 -51 -60 -104 -60
-118 0 -14 26 -67 60 -118 33 -51 60 -95 60 -97 0 -2 -45 -27 -100 -56 -106
-54 -121 -70 -124 -128 l-1 -36 -80 -1 c-44 -1 -83 1 -88 3 -4 2 8 20 27 40
205 218 198 578 -16 803 -179 188 -453 234 -696 118 -127 -60 -248 -204 -297
-354 l-16 -49 -84 0 c-91 0 -84 -4 -129 67 l-18 27 99 50 c55 27 105 56 112
65 15 18 19 72 11 179 -4 64 -2 77 10 78 8 0 47 0 85 -2 123 -3 145 -2 161 12
9 7 38 57 65 111 27 54 51 98 54 98 2 0 46 -27 98 -60z m250 -236 c144 -38
276 -145 339 -276 113 -231 59 -485 -141 -653 -15 -13 -39 -20 -70 -21 l-48
-1 1 51 c0 28 -3 58 -7 67 -5 11 -1 19 16 28 56 30 74 118 36 173 -34 47 -71
57 -210 57 -232 -1 -218 -3 -210 29 4 15 4 43 0 62 -8 37 -58 89 -87 91 -9 1
-69 3 -132 4 -63 1 -118 3 -122 4 -16 2 -7 30 31 108 74 147 203 245 376 286
38 10 180 4 228 -9z m-372 -470 c37 -33 16 -96 -35 -105 -10 -2 -24 -12 -30
-21 -24 -38 2 -43 249 -44 213 0 236 -2 255 -19 26 -23 26 -59 0 -85 -16 -16
-33 -20 -84 -20 -67 0 -92 -13 -80 -44 6 -15 18 -20 38 -17 31 6 65 -13 75
-41 21 -61 -14 -88 -113 -84 -73 2 -100 -9 -94 -40 3 -18 17 -19 360 -24 218
-3 361 -9 367 -15 21 -21 23 -61 4 -84 -14 -17 -31 -24 -68 -26 -66 -4 -62 -3
-69 -21 -13 -33 11 -42 110 -42 77 0 99 -4 115 -18 23 -21 25 -61 2 -86 -15
-17 -50 -18 -712 -18 -383 0 -701 4 -708 8 -7 4 -16 19 -21 32 -13 35 5 70 40
77 34 7 50 25 42 47 -7 18 -5 18 -104 21 -106 3 -107 3 -124 21 -21 20 -20 68
0 85 12 10 61 15 168 19 137 5 151 7 154 24 6 30 -12 38 -93 38 -69 0 -81 3
-102 24 -18 18 -22 30 -18 47 13 40 31 50 102 54 76 5 88 11 78 42 -6 20 -13
21 -148 21 -160 0 -187 9 -187 60 0 26 21 58 38 61 4 0 69 2 144 2 146 2 173
10 152 45 -9 14 -29 17 -110 19 -87 3 -101 6 -116 24 -22 26 -23 48 -3 76 18
26 51 29 324 26 157 -2 186 -4 202 -19z"/>
<path d="M1164 1395 c-18 -43 -18 -71 0 -78 19 -8 43 12 56 46 17 48 13 67
-16 67 -19 0 -28 -8 -40 -35z"/>
<path d="M1292 1306 c-32 -37 -33 -60 -5 -71 22 -8 85 53 81 80 -5 34 -42 30
-76 -9z"/>
<path d="M1384 1185 c-38 -17 -48 -39 -28 -60 14 -13 19 -13 52 0 47 20 66 43
51 62 -14 16 -35 16 -75 -2z"/>
<path d="M571 736 c-16 -19 -4 -44 22 -48 67 -9 112 16 86 48 -15 18 -93 18
-108 0z"/>
<path d="M790 560 c-37 -5 -54 -35 -28 -51 19 -12 122 -11 135 2 13 13 5 49
-11 50 -6 0 -22 1 -36 2 -14 1 -41 0 -60 -3z"/>
<path d="M511 396 c-18 -21 -10 -97 11 -110 27 -16 41 5 40 60 -2 58 -25 81
-51 50z"/>
<path d="M678 402 c-20 -4 -21 -8 -19 -66 1 -79 54 -74 59 6 3 48 -10 67 -40
60z"/>
<path d="M821 396 c-18 -22 -10 -97 12 -110 26 -16 44 13 42 65 -3 52 -30 74
-54 45z"/>
<path d="M982 398 c-18 -18 -16 -105 3 -112 32 -12 45 4 45 59 0 39 -4 54 -16
59 -20 8 -18 8 -32 -6z"/>
<path d="M1137 396 c-17 -17 -16 -91 2 -109 22 -22 46 6 49 56 2 37 -1 48 -17
56 -15 8 -23 7 -34 -3z"/>
<path d="M1290 395 c-17 -20 -8 -96 12 -109 13 -8 21 -7 28 0 13 13 20 88 11
102 -11 17 -40 21 -51 7z"/>
<path d="M1450 400 c-14 -9 -18 -89 -5 -109 10 -16 42 -13 49 5 3 9 6 33 6 54
0 42 -24 66 -50 50z"/>
</g>
</svg>
